<svg width="166" height="28" viewBox="0 0 166 28" fill="none" xmlns="http://www.w3.org/2000/svg">
<path d="M22.5377 6.31329C21.2527 4.76945 19.5336 3.64725 17.6031 3.09213C15.6727 2.53701 13.62 2.5746 11.7112 3.20001L11.5633 2.75198C13.5619 2.09572 15.7117 2.05559 17.7333 2.63684C19.755 3.21809 21.5552 4.39384 22.9 6.01138L22.5377 6.31329Z" fill="white"/>
<path d="M5.21685 19.2657L5.03046 19.1187L7.58895 15.9258L7.77181 16.0736L5.21685 19.2657Z" fill="white"/>
<path d="M11.4819 20.402C10.5477 20.0242 9.7055 19.4501 9.01242 18.7185C8.31935 17.987 7.79159 17.115 7.46481 16.1617L7.91279 16.0068C8.2167 16.8962 8.70859 17.7097 9.35497 18.392C10.0014 19.0743 10.7871 19.6095 11.6587 19.961L11.4819 20.402Z" fill="white"/>
<path d="M17.2394 20.2743L17.0645 19.8368C18.5263 19.2467 19.7269 18.1502 20.4467 16.7477C21.1665 15.3452 21.3574 13.7305 20.9845 12.1988L21.4448 12.0859C21.5767 12.6329 21.6434 13.1936 21.6434 13.7563C21.6485 15.159 21.2315 16.5308 20.4467 17.6935C19.662 18.8562 18.5457 19.756 17.243 20.276L17.2394 20.2743Z" fill="white"/>
<path d="M8.33797 10.048L7.92065 9.82835C8.3771 8.95849 9.01086 8.194 9.78101 7.58421C10.5512 6.97441 11.4406 6.53289 12.3919 6.28809L12.5109 6.74482C11.6235 6.97345 10.7937 7.38545 10.0752 7.95421C9.35662 8.52297 8.76512 9.23587 8.33883 10.0471L8.33797 10.048Z" fill="white"/>
<path d="M13.7281 24.991C11.7748 24.9931 9.85974 24.4494 8.19891 23.4213C6.81998 22.5602 5.657 21.3943 4.79949 20.0131C4.05946 18.814 3.56808 17.4782 3.35463 16.0854C3.14118 14.6925 3.20997 13.271 3.55693 11.9053L4.01366 12.0207C3.55404 13.8292 3.60816 15.73 4.16993 17.5094C4.7317 19.2887 5.77888 20.876 7.19359 22.0927C8.6083 23.3093 10.3344 24.1071 12.1778 24.3962C14.0212 24.6854 15.9088 24.4544 17.628 23.7293L17.8126 24.1668C16.5204 24.7133 15.1311 24.9934 13.7281 24.9902V24.991Z" fill="white"/>
<path d="M23.6174 19.0999L23.2395 18.8147C24.0419 17.7556 24.623 16.546 24.9484 15.2578C25.4085 13.4493 25.3546 11.5484 24.7931 9.76882C24.2315 7.98927 23.1846 6.40174 21.7698 5.18489C20.3551 3.96804 18.6288 3.17017 16.7853 2.88104C14.9418 2.59192 13.0542 2.82303 11.3349 3.54836L11.1503 3.11085C12.6962 2.45861 14.3758 2.18593 16.0486 2.31563C17.7215 2.44533 19.3389 2.97363 20.7658 3.85635C22.1454 4.71583 23.3086 5.88142 24.1652 7.26278C25.2768 9.06101 25.8191 11.1531 25.7212 13.2649C25.6233 15.3767 24.8897 17.4096 23.6165 19.0973L23.6174 19.0999Z" fill="white"/>
<path d="M18.5529 8.04156L18.3491 7.92172L20.3834 4.43652L20.5847 4.55466L18.5529 8.04156Z" fill="white"/>
<path d="M23.0383 19.905L20.6416 16.7488L24.7787 16.4863L24.7944 16.7235L21.0957 16.9519L23.2272 19.7572L23.0383 19.905Z" fill="white"/>
<path d="M14.611 12.5592L14.4202 12.421L18.1907 7.20065L17.1914 2.81507L17.4224 2.76172L18.4444 7.25138L14.611 12.5592Z" fill="white"/>
<path d="M7.71418 15.8604L3.59109 15.6259L3.60594 15.3888L7.67744 15.6225L13.3369 13.5408L7.9277 10.4048L8.04754 10.1982L13.8917 13.5898L7.71418 15.8604Z" fill="white"/>
<path d="M12.3097 6.30886L11.3016 3.00049L11.5257 2.92871L12.5363 6.2389L12.3097 6.30886Z" fill="white"/>
<path d="M8.4596 10.3309L4.40488 10.1349L4.41534 9.90039L8.47188 10.0946L8.4596 10.3309Z" fill="#424C64"/>
<path d="M7.92065 10.388L5.45926 7.01217L5.65174 6.87305L8.10961 10.2471L7.92065 10.388Z" fill="white"/>
<path d="M18.3841 24.5405L14.2286 15.1998L14.4457 15.1035L18.6028 24.4442L18.3841 24.5405Z" fill="white"/>
<path d="M20.1183 7.79525C20.1183 8.13764 20.0167 8.47233 19.8264 8.75699C19.6362 9.04165 19.3658 9.26345 19.0495 9.3944C18.7331 9.52535 18.385 9.55954 18.0492 9.49261C17.7134 9.42569 17.405 9.2607 17.1631 9.01847C16.9211 8.77624 16.7564 8.46767 16.6898 8.13182C16.6232 7.79597 16.6577 7.4479 16.789 7.13167C16.9203 6.81545 17.1424 6.54527 17.4272 6.35531C17.7121 6.16534 18.0469 6.06411 18.3893 6.06445C18.6164 6.06457 18.8414 6.10943 19.0512 6.19647C19.261 6.28352 19.4516 6.41104 19.6122 6.57176C19.7727 6.73248 19.9002 6.92325 19.987 7.13317C20.0738 7.34309 20.1184 7.56808 20.1183 7.79525Z" fill="#219394"/>
<path d="M23.026 11.8452C23.0265 12.1878 22.9254 12.5229 22.7355 12.808C22.5455 13.0931 22.2753 13.3155 21.9589 13.447C21.6426 13.5784 21.2943 13.6131 20.9582 13.5466C20.6221 13.48 20.3133 13.3153 20.0709 13.0732C19.8285 12.8311 19.6633 12.5226 19.5962 12.1867C19.5292 11.8507 19.5633 11.5024 19.6943 11.1858C19.8253 10.8692 20.0472 10.5986 20.3321 10.4082C20.6169 10.2178 20.9518 10.1162 21.2944 10.1162C21.7532 10.1164 22.193 10.2986 22.5177 10.6227C22.8423 10.9468 23.0251 11.3865 23.026 11.8452V11.8452Z" fill="#33B5C9"/>
<path d="M22.319 16.7395C22.319 17.0819 22.2175 17.4166 22.0273 17.7014C21.8371 17.9861 21.5667 18.208 21.2504 18.3391C20.9341 18.4703 20.5861 18.5047 20.2502 18.438C19.9143 18.3713 19.6058 18.2066 19.3636 17.9646C19.1213 17.7226 18.9562 17.4142 18.8892 17.0784C18.8222 16.7426 18.8562 16.3945 18.987 16.078C19.1178 15.7616 19.3395 15.491 19.6241 15.3005C19.9086 15.11 20.2432 15.0082 20.5856 15.0078C21.045 15.008 21.4854 15.1905 21.8104 15.5152C22.1354 15.8398 22.3183 16.2801 22.319 16.7395V16.7395Z" fill="#39A95E"/>
<path d="M13.6187 20.2992C13.619 20.6417 13.5179 20.9767 13.3278 21.2617C13.1378 21.5466 12.8675 21.7689 12.5512 21.9002C12.2349 22.0316 11.8867 22.0662 11.5507 21.9996C11.2147 21.9331 10.9059 21.7684 10.6635 21.5263C10.4211 21.2843 10.256 20.9759 10.1889 20.64C10.1219 20.3041 10.1559 19.9559 10.2868 19.6393C10.4176 19.3228 10.6395 19.0521 10.9242 18.8617C11.2089 18.6712 11.5436 18.5695 11.8862 18.5693C12.3453 18.5691 12.7857 18.7512 13.1106 19.0756C13.4355 19.4 13.6182 19.8401 13.6187 20.2992V20.2992Z" fill="#392C78"/>
<path d="M18.6273 20.3195C18.6271 20.662 18.5254 20.9967 18.3349 21.2814C18.1444 21.5661 17.8738 21.788 17.5573 21.9188C17.2408 22.0497 16.8925 22.0838 16.5566 22.0167C16.2207 21.9497 15.9123 21.7845 15.6702 21.5421C15.4282 21.2997 15.2635 20.991 15.197 20.655C15.1304 20.319 15.165 19.9708 15.2964 19.6545C15.4278 19.3382 15.6499 19.0679 15.9349 18.8779C16.2199 18.6878 16.5548 18.5866 16.8973 18.5869C17.3564 18.5876 17.7964 18.7705 18.1207 19.0953C18.4451 19.4201 18.6273 19.8604 18.6273 20.3195V20.3195Z" fill="#E2341D"/>
<path d="M9.46588 15.8683C9.46571 16.2108 9.36403 16.5454 9.17364 16.8301C8.98326 17.1147 8.7128 17.3366 8.39637 17.4675C8.07993 17.5984 7.7317 17.6326 7.39585 17.5657C7.06 17.4987 6.7516 17.3338 6.50952 17.0916C6.26743 16.8494 6.10255 16.5408 6.0358 16.2049C5.96906 15.869 6.00341 15.5209 6.1345 15.2045C6.26559 14.8881 6.48753 14.6178 6.77228 14.4276C7.05703 14.2373 7.39178 14.1357 7.73423 14.1357C8.1935 14.1362 8.63385 14.3189 8.95852 14.6437C9.28319 14.9686 9.46565 15.409 9.46588 15.8683Z" fill="#005986"/>
<path d="M9.87891 10.0931C9.87926 10.4359 9.77783 10.771 9.58763 11.0562C9.39743 11.3413 9.12695 11.5637 8.81035 11.6951C8.49376 11.8265 8.14531 11.8609 7.80909 11.7942C7.47287 11.7275 7.16402 11.5625 6.92158 11.3202C6.67914 11.0779 6.51401 10.7691 6.44712 10.4329C6.38023 10.0967 6.4146 9.74827 6.54581 9.43161C6.67703 9.11494 6.89917 8.84436 7.18424 8.65401C7.4693 8.46367 7.80449 8.36213 8.14726 8.3623C8.60623 8.36277 9.04629 8.54526 9.37091 8.86972C9.69553 9.19418 9.87822 9.63413 9.87891 10.0931Z" fill="#2A4C9C"/>
<path d="M14.0921 6.70638C14.0923 7.04887 13.9908 7.38369 13.8007 7.66855C13.6106 7.95342 13.3402 8.17554 13.0239 8.30676C12.7075 8.43798 12.3594 8.47242 12.0234 8.40577C11.6875 8.33913 11.3789 8.17438 11.1366 7.93233C10.8943 7.69027 10.7292 7.38181 10.6622 7.04594C10.5952 6.71007 10.6294 6.36185 10.7603 6.04537C10.8912 5.72889 11.113 5.45835 11.3976 5.26793C11.6823 5.07751 12.0171 4.97576 12.3596 4.97559C12.8188 4.97559 13.2591 5.15788 13.584 5.48241C13.9088 5.80695 14.0916 6.24719 14.0921 6.70638Z" fill="#0063B0"/>
<path d="M5.06806 9.99601C5.06806 10.1743 5.01525 10.3486 4.91617 10.4968C4.8171 10.645 4.6763 10.7605 4.51157 10.8287C4.34683 10.8969 4.1656 10.9147 3.99075 10.8799C3.8159 10.845 3.65522 10.7591 3.52921 10.633C3.4032 10.5069 3.31747 10.3462 3.28279 10.1713C3.24812 9.99641 3.26614 9.81514 3.33449 9.65047C3.40284 9.48581 3.51846 9.34511 3.66678 9.24619C3.81511 9.14726 3.98945 9.09455 4.16774 9.09473C4.40661 9.09496 4.63562 9.19004 4.80445 9.35904C4.97328 9.52803 5.06806 9.75714 5.06806 9.99601V9.99601Z" fill="#2A4C9C"/>
<path d="M6.55905 6.83217C6.55887 7.04136 6.4967 7.24584 6.38035 7.41969C6.264 7.59354 6.09878 7.72898 5.90546 7.80892C5.71214 7.88885 5.49943 7.90965 5.29428 7.86873C5.08912 7.82782 4.9007 7.72704 4.75284 7.57906C4.60498 7.43107 4.50434 7.24254 4.46359 7.03735C4.42284 6.83217 4.44385 6.61953 4.52394 6.42628C4.60404 6.23303 4.73964 6.06786 4.91359 5.95166C5.08754 5.83545 5.29198 5.77344 5.50117 5.77344C5.6402 5.77332 5.77786 5.80058 5.90631 5.85376C6.03477 5.90694 6.15156 5.98495 6.24982 6.0833C6.34809 6.18165 6.42597 6.29842 6.47904 6.42692C6.53212 6.55542 6.55928 6.69314 6.55905 6.83217V6.83217Z" fill="#2A4C9C"/>
<path d="M12.4356 3.0196C12.4354 3.22896 12.3732 3.43355 12.2568 3.60755C12.1404 3.78155 11.975 3.91715 11.7815 3.99715C11.588 4.07715 11.3751 4.09797 11.1698 4.05702C10.9644 4.01607 10.7759 3.91518 10.6279 3.76707C10.4799 3.61897 10.3792 3.4303 10.3384 3.22495C10.2977 3.01959 10.3186 2.80675 10.3988 2.61334C10.4789 2.41992 10.6147 2.25464 10.7888 2.13834C10.9629 2.02204 11.1675 1.95996 11.3769 1.95996C11.6578 1.96019 11.9271 2.07193 12.1256 2.27063C12.3242 2.46932 12.4356 2.73872 12.4356 3.0196Z" fill="#0063B0"/>
<path d="M18.6842 2.9043C18.684 3.11383 18.6217 3.31859 18.5052 3.49273C18.3886 3.66687 18.2231 3.80258 18.0294 3.88265C17.8358 3.96272 17.6228 3.98356 17.4173 3.94257C17.2118 3.90159 17.023 3.80059 16.8749 3.65236C16.7268 3.50413 16.626 3.31533 16.5852 3.1098C16.5444 2.90428 16.5654 2.69128 16.6457 2.49771C16.7259 2.30414 16.8617 2.13868 17.036 2.02229C17.2102 1.90589 17.415 1.84375 17.6245 1.84375C17.7638 1.84364 17.9017 1.87102 18.0304 1.92429C18.1591 1.97755 18.2759 2.05569 18.3743 2.1542C18.4728 2.25271 18.5508 2.36964 18.604 2.49835C18.6571 2.62707 18.6844 2.76504 18.6842 2.9043Z" fill="#219394"/>
<path d="M21.4554 4.04499C21.4552 4.25432 21.393 4.45891 21.2765 4.63289C21.1601 4.80687 20.9948 4.94241 20.8013 5.02243C20.6079 5.10246 20.3951 5.12334 20.1898 5.08246C19.9845 5.04158 19.7959 4.9408 19.6479 4.79279C19.4998 4.64477 19.3991 4.45617 19.3582 4.25087C19.3173 4.04557 19.3382 3.83274 19.4182 3.63931C19.4982 3.44589 19.6338 3.28056 19.8078 3.16416C19.9817 3.04775 20.1863 2.98552 20.3957 2.98535C20.6766 2.98558 20.9461 3.09729 21.1447 3.29596C21.3434 3.49463 21.4551 3.76403 21.4554 4.04499V4.04499Z" fill="#219394"/>
<path d="M23.6892 6.40839C23.6892 6.61776 23.6272 6.82241 23.5109 6.9965C23.3946 7.1706 23.2293 7.30632 23.0359 7.38648C22.8425 7.46664 22.6296 7.48766 22.4243 7.44688C22.2189 7.4061 22.0303 7.30535 21.8822 7.15736C21.7341 7.00938 21.6331 6.82082 21.5922 6.6155C21.5512 6.41018 21.5721 6.19732 21.6521 6.00384C21.7321 5.81036 21.8677 5.64491 22.0417 5.52847C22.2157 5.41202 22.4203 5.34978 22.6297 5.34961C22.9105 5.34984 23.1797 5.46147 23.3783 5.65995C23.577 5.85844 23.6888 6.12758 23.6892 6.40839V6.40839Z" fill="#219394"/>
<path d="M26.1795 16.5333C26.1796 16.743 26.1177 16.948 26.0013 17.1224C25.8849 17.2967 25.7194 17.4327 25.5258 17.513C25.3321 17.5933 25.1189 17.6144 24.9133 17.5735C24.7077 17.5327 24.5188 17.4317 24.3706 17.2835C24.2223 17.1352 24.1213 16.9463 24.0805 16.7407C24.0396 16.5351 24.0607 16.322 24.141 16.1283C24.2214 15.9346 24.3573 15.7692 24.5317 15.6528C24.7061 15.5365 24.9111 15.4744 25.1207 15.4746C25.4014 15.4751 25.6704 15.5868 25.8689 15.7852C26.0673 15.9837 26.179 16.2527 26.1795 16.5333V16.5333Z" fill="#39A95E"/>
<path d="M24.4829 20.2746C24.4829 20.484 24.4207 20.6888 24.3043 20.863C24.1879 21.0371 24.0225 21.1728 23.8289 21.2529C23.6353 21.333 23.4224 21.3539 23.217 21.3129C23.0115 21.2719 22.8229 21.1709 22.6749 21.0226C22.5269 20.8744 22.4262 20.6856 22.3855 20.4801C22.3449 20.2746 22.3661 20.0616 22.4465 19.8682C22.5269 19.6747 22.6629 19.5095 22.8373 19.3934C23.0116 19.2773 23.2164 19.2155 23.4259 19.2158C23.5648 19.2159 23.7024 19.2434 23.8307 19.2967C23.959 19.3499 24.0755 19.428 24.1737 19.5263C24.2718 19.6246 24.3496 19.7413 24.4027 19.8697C24.4558 19.9981 24.483 20.1356 24.4829 20.2746V20.2746Z" fill="#39A95E"/>
<path d="M19.5906 23.9981C19.5903 24.2073 19.528 24.4116 19.4115 24.5854C19.2951 24.7591 19.1297 24.8944 18.9364 24.9742C18.7431 25.054 18.5304 25.0747 18.3253 25.0337C18.1202 24.9927 17.9319 24.8918 17.7841 24.7438C17.6363 24.5958 17.5357 24.4073 17.4951 24.2021C17.4544 23.997 17.4755 23.7844 17.5556 23.5912C17.6357 23.398 17.7712 23.2328 17.9452 23.1166C18.1191 23.0005 18.3236 22.9385 18.5328 22.9385C18.6719 22.9384 18.8096 22.9657 18.9381 23.019C19.0666 23.0722 19.1834 23.1503 19.2817 23.2487C19.38 23.3472 19.4578 23.464 19.5108 23.5926C19.5639 23.7212 19.591 23.859 19.5906 23.9981Z" fill="#E2341D"/>
<path d="M13.14 24.4706C13.1397 24.6799 13.0774 24.8845 12.9609 25.0583C12.8444 25.2322 12.6789 25.3676 12.4855 25.4475C12.292 25.5274 12.0792 25.5482 11.874 25.5072C11.6687 25.4662 11.4803 25.3653 11.3323 25.2173C11.1844 25.0692 11.0837 24.8806 11.0429 24.6754C11.0021 24.4701 11.0231 24.2573 11.1031 24.064C11.1832 23.8706 11.3187 23.7053 11.4927 23.5889C11.6666 23.4725 11.8711 23.4103 12.0804 23.4102C12.2197 23.4099 12.3577 23.4372 12.4864 23.4904C12.6152 23.5437 12.732 23.6218 12.8305 23.7203C12.9289 23.8189 13.007 23.9359 13.0601 24.0647C13.1132 24.1934 13.1404 24.3314 13.14 24.4706V24.4706Z" fill="#392C78"/>
<path d="M10.2017 23.5235C10.2017 23.7332 10.1395 23.9381 10.023 24.1124C9.90649 24.2867 9.74088 24.4225 9.54715 24.5027C9.35343 24.5828 9.14028 24.6037 8.93469 24.5626C8.72909 24.5216 8.54031 24.4205 8.39218 24.2722C8.24406 24.1238 8.1433 23.9348 8.10261 23.7292C8.06192 23.5235 8.08313 23.3104 8.1636 23.1168C8.24407 22.9232 8.38016 22.7578 8.55465 22.6416C8.72913 22.5254 8.93417 22.4635 9.14383 22.4639C9.42456 22.4643 9.6936 22.5762 9.89194 22.7749C10.0903 22.9735 10.2017 23.2428 10.2017 23.5235V23.5235Z" fill="#392C78"/>
<path d="M5.28772 10.0237C5.28807 10.2333 5.22628 10.4383 5.11009 10.6128C4.99391 10.7872 4.82853 10.9233 4.63499 11.0038C4.44145 11.0843 4.22838 11.1056 4.02274 11.065C3.8171 11.0244 3.62811 10.9237 3.4797 10.7757C3.3313 10.6276 3.23019 10.4389 3.18907 10.2334C3.14794 10.0278 3.16865 9.8147 3.24867 9.62096C3.32868 9.42722 3.46435 9.26156 3.63853 9.14495C3.81271 9.02833 4.01757 8.96599 4.22718 8.96582C4.50806 8.96559 4.77761 9.07689 4.97647 9.27526C5.17533 9.47363 5.28726 9.74281 5.28772 10.0237V10.0237Z" fill="#2A4C9C"/>
<path d="M4.73464 15.6824C4.73429 15.8919 4.67184 16.0967 4.55519 16.2707C4.43855 16.4447 4.273 16.5803 4.07934 16.6602C3.88569 16.7401 3.67263 16.7608 3.4672 16.7198C3.26176 16.6787 3.07314 16.5776 2.92512 16.4294C2.7771 16.2811 2.6764 16.0923 2.63566 15.8868C2.59491 15.6813 2.61597 15.4683 2.69622 15.2748C2.77647 15.0813 2.9123 14.9159 3.08652 14.7995C3.26073 14.6832 3.46555 14.6211 3.67506 14.6211C3.95625 14.6216 4.22578 14.7336 4.42445 14.9326C4.62312 15.1316 4.73464 15.4012 4.73464 15.6824V15.6824Z" fill="#005986"/>
<path d="M6.03588 19.0831C6.03588 19.2925 5.97384 19.4972 5.8575 19.6714C5.74116 19.8455 5.57575 19.9812 5.38229 20.0613C5.18882 20.1415 4.97595 20.1624 4.77057 20.1216C4.56519 20.0807 4.37657 19.9799 4.22849 19.8318C4.08042 19.6837 3.97956 19.4951 3.93871 19.2897C3.89786 19.0843 3.91882 18.8715 3.99895 18.678C4.07909 18.4845 4.21482 18.3192 4.38893 18.2028C4.56304 18.0865 4.76774 18.0244 4.97715 18.0244C5.25795 18.0244 5.52724 18.1359 5.7258 18.3345C5.92435 18.533 6.03588 18.8023 6.03588 19.0831V19.0831Z" fill="#005986"/>
<path d="M14.1795 10.25C13.5143 10.2503 12.8642 10.4479 12.3113 10.8178C11.7584 11.1876 11.3275 11.7131 11.0732 12.3278C10.8189 12.9425 10.7526 13.6188 10.8827 14.2711C11.0127 14.9235 11.3334 15.5227 11.8039 15.9928C12.2745 16.463 12.8738 16.7831 13.5263 16.9127C14.1787 17.0422 14.855 16.9754 15.4695 16.7206C16.084 16.4659 16.6092 16.0346 16.9786 15.4814C17.348 14.9282 17.5451 14.2778 17.5449 13.6126C17.5448 13.1708 17.4576 12.7334 17.2884 12.3253C17.1192 11.9172 16.8713 11.5465 16.5588 11.2342C16.2463 10.922 15.8753 10.6743 15.4671 10.5054C15.0588 10.3366 14.6213 10.2498 14.1795 10.25ZM14.0334 15.3819C13.7606 15.3809 13.4896 15.336 13.231 15.2489C13.1732 15.2284 13.1168 15.2042 13.0622 15.1763L13.3711 14.5953C13.4244 14.6146 13.4822 14.6364 13.5408 14.653C13.7153 14.7083 13.8968 14.7377 14.0798 14.7405C14.4394 14.7405 14.631 14.5918 14.631 14.3652C14.631 14.1386 14.4658 14.0256 14.0484 13.8769C13.4726 13.6748 13.0972 13.3519 13.0972 12.8497C13.0972 12.259 13.5907 11.7996 14.4097 11.7996C14.6886 11.7959 14.9656 11.8464 15.2252 11.9484L14.9199 12.5285C14.7508 12.4708 14.5735 12.4413 14.3949 12.441C14.0545 12.441 13.89 12.5942 13.89 12.777C13.89 12.9984 14.086 13.0938 14.5331 13.2635C15.1456 13.4901 15.4335 13.8095 15.4335 14.2986C15.4335 14.884 14.9872 15.3767 14.0334 15.3767V15.3819Z" fill="#2A4C9C"/>
<path d="M14.5357 13.2717C14.0894 13.0967 13.8917 13.0048 13.8917 12.7852C13.8917 12.6023 14.0588 12.4491 14.3966 12.4491C14.5752 12.4493 14.7526 12.4789 14.9216 12.5367L15.2287 11.9565C14.9687 11.8548 14.6915 11.8043 14.4123 11.8078C13.5942 11.8078 13.0998 12.2628 13.0998 12.8578C13.0998 13.3636 13.4752 13.6812 14.0509 13.8833C14.4683 14.033 14.6337 14.1546 14.6337 14.3733C14.6337 14.5921 14.4421 14.7487 14.0825 14.7487C13.8998 14.7465 13.7183 14.7185 13.5435 14.6656C13.4849 14.6472 13.427 14.6262 13.3745 14.6061L13.0648 15.1871C13.1195 15.2155 13.1762 15.2398 13.2346 15.2597C13.4928 15.3469 13.7635 15.3918 14.0361 15.3927C14.9907 15.3927 15.4361 14.9001 15.4361 14.3147C15.4361 13.8256 15.1482 13.5062 14.5348 13.2796L14.5357 13.2717Z" fill="white"/>
<mask id="path-40-inside-1_11286_472" fill="white">
<path d="M5.57813 25.3487C5.52697 25.3482 5.47715 25.3327 5.43468 25.3041C3.0163 23.4878 1.26961 20.9197 0.468953 18.0031C0.454054 17.9427 0.463441 17.8788 0.495015 17.8252C0.526589 17.7716 0.577885 17.7325 0.637931 17.7163C0.697977 17.7 0.762023 17.7079 0.816308 17.7383C0.870593 17.7687 0.91078 17.8191 0.928355 17.8788C1.69837 20.6942 3.38437 23.1729 5.71998 24.9235C5.75965 24.9533 5.78894 24.9947 5.80372 25.0421C5.81851 25.0894 5.81801 25.1402 5.80233 25.1872C5.78665 25.2343 5.75658 25.2751 5.71635 25.3041C5.67612 25.3331 5.62772 25.3487 5.57813 25.3487V25.3487Z"/>
</mask>
<path d="M5.57813 25.3487C5.52697 25.3482 5.47715 25.3327 5.43468 25.3041C3.0163 23.4878 1.26961 20.9197 0.468953 18.0031C0.454054 17.9427 0.463441 17.8788 0.495015 17.8252C0.526589 17.7716 0.577885 17.7325 0.637931 17.7163C0.697977 17.7 0.762023 17.7079 0.816308 17.7383C0.870593 17.7687 0.91078 17.8191 0.928355 17.8788C1.69837 20.6942 3.38437 23.1729 5.71998 24.9235C5.75965 24.9533 5.78894 24.9947 5.80372 25.0421C5.81851 25.0894 5.81801 25.1402 5.80233 25.1872C5.78665 25.2343 5.75658 25.2751 5.71635 25.3041C5.67612 25.3331 5.62772 25.3487 5.57813 25.3487V25.3487Z" fill="white"/>
<path d="M5.43468 25.3041L4.83414 26.1037L4.85509 26.1195L4.87683 26.1341L5.43468 25.3041ZM0.468953 18.0031L-0.50194 18.2426L-0.49882 18.2552L-0.495372 18.2678L0.468953 18.0031ZM0.928355 17.8788L1.89293 17.615L1.89036 17.6056L1.88761 17.5962L0.928355 17.8788ZM5.71998 24.9235L6.31998 24.1235L6.31973 24.1233L5.71998 24.9235ZM5.57813 25.3487L5.58932 24.3488C5.73286 24.3504 5.87308 24.3939 5.99254 24.4742L5.43468 25.3041L4.87683 26.1341C5.08121 26.2715 5.32108 26.3459 5.56694 26.3487L5.57813 25.3487ZM5.43468 25.3041L6.03523 24.5045C3.794 22.8213 2.17527 20.4413 1.43328 17.7383L0.468953 18.0031L-0.495372 18.2678C0.363938 21.3981 2.2386 24.1543 4.83414 26.1037L5.43468 25.3041ZM0.468953 18.0031L1.43985 17.7635C1.48767 17.9574 1.45743 18.1617 1.35661 18.3328L0.495015 17.8252L-0.366583 17.3176C-0.53055 17.5959 -0.579564 17.9279 -0.50194 18.2426L0.468953 18.0031ZM0.495015 17.8252L1.35661 18.3328C1.25559 18.5043 1.0914 18.6295 0.899025 18.6816L0.637931 17.7163L0.376837 16.7509C0.0643676 16.8355 -0.202415 17.039 -0.366583 17.3176L0.495015 17.8252ZM0.637931 17.7163L0.899025 18.6816C0.706663 18.7336 0.50174 18.7082 0.328046 18.611L0.816308 17.7383L1.30457 16.8656C1.02231 16.7077 0.689291 16.6664 0.376837 16.7509L0.637931 17.7163ZM0.816308 17.7383L0.328046 18.611C0.153833 18.5135 0.0252364 18.3519 -0.0308993 18.1613L0.928355 17.8788L1.88761 17.5962C1.79632 17.2863 1.58735 17.0238 1.30457 16.8656L0.816308 17.7383ZM0.928355 17.8788L-0.0362193 18.1426C0.792432 21.1724 2.6068 23.8398 5.12023 25.7237L5.71998 24.9235L6.31973 24.1233C4.16194 22.506 2.60432 20.216 1.89293 17.615L0.928355 17.8788ZM5.71998 24.9235L5.11998 25.7235C4.9916 25.6272 4.89695 25.4931 4.84921 25.3402L5.80372 25.0421L6.75824 24.7439C6.68093 24.4964 6.5277 24.2793 6.31998 24.1235L5.71998 24.9235ZM5.80372 25.0421L4.84921 25.3402C4.80137 25.1871 4.80301 25.0229 4.85365 24.871L5.80233 25.1872L6.75102 25.5035C6.83302 25.2575 6.83565 24.9917 6.75824 24.7439L5.80372 25.0421ZM5.80233 25.1872L4.85365 24.871C4.90443 24.7187 5.00184 24.5865 5.13164 24.4929L5.71635 25.3041L6.30106 26.1154C6.51131 25.9638 6.66887 25.7499 6.75102 25.5035L5.80233 25.1872ZM5.71635 25.3041L5.13164 24.4929C5.26195 24.399 5.41817 24.3487 5.57813 24.3487L5.57813 25.3487L5.57813 26.3487C5.83726 26.3487 6.09029 26.2673 6.30106 26.1154L5.71635 25.3041Z" fill="white" mask="url(#path-40-inside-1_11286_472)"/>
<mask id="path-42-inside-2_11286_472" fill="white">
<path d="M14.7685 27.9999C14.7057 27.9999 14.6455 27.9749 14.6011 27.9305C14.5567 27.8862 14.5318 27.826 14.5318 27.7632C14.5318 27.7004 14.5567 27.6402 14.6011 27.5958C14.6455 27.5515 14.7057 27.5265 14.7685 27.5265C17.7387 27.513 20.6169 26.4946 22.9347 24.6372C25.2526 22.7798 26.8736 20.1926 27.534 17.2967C27.5407 17.2664 27.5533 17.2377 27.5712 17.2122C27.589 17.1868 27.6116 17.1651 27.6378 17.1484C27.664 17.1317 27.6933 17.1203 27.7239 17.1149C27.7545 17.1095 27.7859 17.1102 27.8162 17.1169C27.8465 17.1236 27.8752 17.1363 27.9007 17.1541C27.9261 17.1719 27.9479 17.1946 27.9646 17.2208C27.9813 17.247 27.9926 17.2762 27.998 17.3068C28.0034 17.3374 28.0028 17.3688 27.9961 17.3991C27.3119 20.4 25.6322 23.081 23.2305 25.0057C20.8288 26.9305 17.8463 27.9858 14.7685 27.9999V27.9999Z"/>
</mask>
<path d="M14.7685 27.9999C14.7057 27.9999 14.6455 27.9749 14.6011 27.9305C14.5567 27.8862 14.5318 27.826 14.5318 27.7632C14.5318 27.7004 14.5567 27.6402 14.6011 27.5958C14.6455 27.5515 14.7057 27.5265 14.7685 27.5265C17.7387 27.513 20.6169 26.4946 22.9347 24.6372C25.2526 22.7798 26.8736 20.1926 27.534 17.2967C27.5407 17.2664 27.5533 17.2377 27.5712 17.2122C27.589 17.1868 27.6116 17.1651 27.6378 17.1484C27.664 17.1317 27.6933 17.1203 27.7239 17.1149C27.7545 17.1095 27.7859 17.1102 27.8162 17.1169C27.8465 17.1236 27.8752 17.1363 27.9007 17.1541C27.9261 17.1719 27.9479 17.1946 27.9646 17.2208C27.9813 17.247 27.9926 17.2762 27.998 17.3068C28.0034 17.3374 28.0028 17.3688 27.9961 17.3991C27.3119 20.4 25.6322 23.081 23.2305 25.0057C20.8288 26.9305 17.8463 27.9858 14.7685 27.9999V27.9999Z" fill="white"/>
<path d="M14.7685 27.5265L14.7685 28.5265L14.773 28.5265L14.7685 27.5265ZM27.534 17.2967L28.509 17.5191L28.5103 17.5131L27.534 17.2967ZM27.9961 17.3991L28.9711 17.6214L28.9724 17.6155L27.9961 17.3991ZM14.7685 27.9999V26.9999C14.9708 26.9999 15.165 27.0802 15.3082 27.2234L14.6011 27.9305L13.894 28.6377C14.126 28.8696 14.4406 28.9999 14.7685 28.9999V27.9999ZM14.6011 27.9305L15.3082 27.2234C15.4512 27.3665 15.5318 27.5606 15.5318 27.7632H14.5318H13.5318C13.5318 28.0914 13.6622 28.4058 13.894 28.6377L14.6011 27.9305ZM14.5318 27.7632H15.5318C15.5318 27.9656 15.4514 28.1597 15.3082 28.303L14.6011 27.5958L13.894 26.8887C13.662 27.1207 13.5318 27.4353 13.5318 27.7632H14.5318ZM14.6011 27.5958L15.3082 28.303C15.165 28.4462 14.9708 28.5265 14.7685 28.5265V27.5265V26.5265C14.4406 26.5265 14.126 26.6568 13.894 26.8887L14.6011 27.5958ZM14.7685 27.5265L14.773 28.5265C17.969 28.5119 21.0661 27.4161 23.5601 25.4175L22.9347 24.6372L22.3094 23.8568C20.1678 25.573 17.5083 26.514 14.7639 26.5265L14.7685 27.5265ZM22.9347 24.6372L23.5601 25.4175C26.0541 23.4189 27.7983 20.6351 28.509 17.5191L27.534 17.2967L26.559 17.0744C25.9488 19.7501 24.451 22.1406 22.3094 23.8568L22.9347 24.6372ZM27.534 17.2967L28.5103 17.5131C28.4886 17.611 28.4478 17.7037 28.3904 17.7857L27.5712 17.2122L26.752 16.6387C26.6589 16.7717 26.5928 16.9217 26.5577 17.0804L27.534 17.2967ZM27.5712 17.2122L28.3904 17.7857C28.3329 17.8678 28.2598 17.9379 28.1752 17.9918L27.6378 17.1484L27.1004 16.3051C26.9634 16.3924 26.8451 16.5058 26.752 16.6387L27.5712 17.2122ZM27.6378 17.1484L28.1752 17.9918C28.0906 18.0457 27.9963 18.0823 27.8977 18.0997L27.7239 17.1149L27.5502 16.1301C27.3903 16.1584 27.2374 16.2178 27.1004 16.3051L27.6378 17.1484ZM27.7239 17.1149L27.8977 18.0997C27.7995 18.117 27.6983 18.1151 27.5999 18.0932L27.8162 17.1169L28.0325 16.1406C27.8734 16.1053 27.7095 16.102 27.5502 16.1301L27.7239 17.1149ZM27.8162 17.1169L27.5999 18.0932C27.5019 18.0715 27.4092 18.0307 27.3272 17.9733L27.9007 17.1541L28.4742 16.3349C28.3412 16.2418 28.1912 16.1758 28.0325 16.1406L27.8162 17.1169ZM27.9007 17.1541L27.3272 17.9733C27.2451 17.9159 27.1751 17.8428 27.1212 17.7582L27.9646 17.2208L28.8079 16.6834C28.7206 16.5464 28.6071 16.428 28.4742 16.3349L27.9007 17.1541ZM27.9646 17.2208L27.1212 17.7582C27.067 17.673 27.0305 17.5786 27.0132 17.4806L27.998 17.3068L28.9828 17.1331C28.9547 16.9739 28.8956 16.821 28.8079 16.6834L27.9646 17.2208ZM27.998 17.3068L27.0132 17.4806C26.9961 17.3836 26.9977 17.2824 27.0197 17.1828L27.9961 17.3991L28.9724 17.6155C29.0079 17.4552 29.0107 17.2912 28.9828 17.1331L27.998 17.3068ZM27.9961 17.3991L27.0211 17.1768C26.3871 19.9575 24.8307 22.4418 22.6051 24.2254L23.2305 25.0057L23.8559 25.7861C26.4338 23.7201 28.2367 20.8424 28.971 17.6214L27.9961 17.3991ZM23.2305 25.0057L22.6051 24.2254C20.3796 26.009 17.6159 26.9868 14.7639 26.9999L14.7685 27.9999L14.773 28.9999C18.0766 28.9847 21.2779 27.8521 23.8559 25.7861L23.2305 25.0057Z" fill="white" mask="url(#path-42-inside-2_11286_472)"/>
<mask id="path-44-inside-3_11286_472" fill="white">
<path d="M27.6662 9.47954C27.6134 9.47995 27.562 9.46246 27.5205 9.42987C27.479 9.39728 27.4498 9.35156 27.4377 9.3002C26.9272 7.33006 25.966 5.50545 24.6297 3.97039C23.2934 2.43534 21.6187 1.23181 19.7377 0.454702C19.6799 0.430483 19.634 0.384516 19.6097 0.326741C19.5855 0.268965 19.5849 0.203982 19.6081 0.1458C19.62 0.117122 19.6374 0.0911047 19.6594 0.0691614C19.6814 0.0472181 19.7074 0.0298089 19.7361 0.0179446C19.7648 0.00608036 19.7955 -2.29095e-05 19.8266 6.46189e-08C19.8576 2.30387e-05 19.8884 0.00614473 19.917 0.0180514C21.8659 0.822676 23.601 2.06947 24.9852 3.65989C26.3694 5.25031 27.3648 7.14082 27.8927 9.18206C27.9078 9.24356 27.8979 9.30849 27.8651 9.36263C27.8323 9.41677 27.7793 9.45572 27.7178 9.47083C27.6985 9.47506 27.6789 9.47767 27.6591 9.47868L27.6662 9.47954Z"/>
</mask>
<path d="M27.6662 9.47954C27.6134 9.47995 27.562 9.46246 27.5205 9.42987C27.479 9.39728 27.4498 9.35156 27.4377 9.3002C26.9272 7.33006 25.966 5.50545 24.6297 3.97039C23.2934 2.43534 21.6187 1.23181 19.7377 0.454702C19.6799 0.430483 19.634 0.384516 19.6097 0.326741C19.5855 0.268965 19.5849 0.203982 19.6081 0.1458C19.62 0.117122 19.6374 0.0911047 19.6594 0.0691614C19.6814 0.0472181 19.7074 0.0298089 19.7361 0.0179446C19.7648 0.00608036 19.7955 -2.29095e-05 19.8266 6.46189e-08C19.8576 2.30387e-05 19.8884 0.00614473 19.917 0.0180514C21.8659 0.822676 23.601 2.06947 24.9852 3.65989C26.3694 5.25031 27.3648 7.14082 27.8927 9.18206C27.9078 9.24356 27.8979 9.30849 27.8651 9.36263C27.8323 9.41677 27.7793 9.45572 27.7178 9.47083C27.6985 9.47506 27.6789 9.47767 27.6591 9.47868L27.6662 9.47954Z" fill="white"/>
<path d="M27.6662 9.47954L27.674 10.4795L27.7865 8.4868L27.6662 9.47954ZM27.4377 9.3002L28.4111 9.07091L28.4085 9.0601L28.4058 9.04936L27.4377 9.3002ZM19.7377 0.454702L19.3511 1.37697L19.3559 1.37893L19.7377 0.454702ZM19.6081 0.1458L18.6842 -0.237006L18.6794 -0.22499L19.6081 0.1458ZM19.917 0.0180514L19.5335 0.941567L19.5354 0.942369L19.917 0.0180514ZM27.8927 9.18206L28.8642 8.94433L28.8609 8.93164L27.8927 9.18206ZM27.7178 9.47083L27.932 10.4476L27.9443 10.4449L27.9565 10.4419L27.7178 9.47083ZM27.6591 9.47868L27.608 8.47999L27.5388 10.4714L27.6591 9.47868ZM27.6662 9.47954L27.6584 8.47957C27.8314 8.47821 28.0007 8.53547 28.1382 8.64344L27.5205 9.42987L26.9028 10.2163C27.1233 10.3895 27.3955 10.4817 27.674 10.4795L27.6662 9.47954ZM27.5205 9.42987L28.1382 8.64344C28.275 8.75088 28.3712 8.90161 28.4111 9.07091L27.4377 9.3002L26.4644 9.52949C26.5284 9.8015 26.683 10.0437 26.9028 10.2163L27.5205 9.42987ZM27.4377 9.3002L28.4058 9.04936C27.8564 6.92927 26.822 4.96576 25.384 3.31381L24.6297 3.97039L23.8755 4.62698C25.11 6.04515 25.998 7.73084 26.4697 9.55103L27.4377 9.3002ZM24.6297 3.97039L25.384 3.31381C23.9459 1.66188 22.1437 0.366731 20.1195 -0.469529L19.7377 0.454702L19.3559 1.37893C21.0937 2.09689 22.6409 3.20879 23.8755 4.62698L24.6297 3.97039ZM19.7377 0.454702L20.1243 -0.467548C20.3084 -0.390352 20.4548 -0.243934 20.532 -0.0599144L19.6097 0.326741L18.6875 0.713396C18.8131 1.01297 19.0514 1.25132 19.3511 1.37695L19.7377 0.454702ZM19.6097 0.326741L20.532 -0.0599144C20.6089 0.123618 20.6111 0.330649 20.5368 0.516589L19.6081 0.1458L18.6794 -0.22499C18.5587 0.0773143 18.5621 0.414312 18.6875 0.713396L19.6097 0.326741ZM19.6081 0.1458L20.532 0.528573C20.4933 0.621949 20.4368 0.706063 20.3663 0.776488L19.6594 0.0691614L18.9525 -0.638166C18.8381 -0.523853 18.7467 -0.387706 18.6843 -0.236973L19.6081 0.1458ZM19.6594 0.0691614L20.3663 0.776488C20.2956 0.847173 20.2114 0.903535 20.1183 0.942025L19.7361 0.0179446L19.3539 -0.906136C19.2035 -0.843917 19.0672 -0.752737 18.9525 -0.638166L19.6594 0.0691614ZM19.7361 0.0179446L20.1183 0.942025C20.0257 0.98031 19.9264 1.00007 19.8258 1L19.8266 6.46189e-08L19.8273 -1C19.6647 -1.00012 19.5038 -0.96815 19.3539 -0.906136L19.7361 0.0179446ZM19.8266 6.46189e-08L19.8258 1C19.726 0.999926 19.6266 0.980255 19.5335 0.941565L19.917 0.0180514L20.3006 -0.905462C20.1501 -0.967966 19.9892 -0.99988 19.8273 -1L19.8266 6.46189e-08ZM19.917 0.0180514L19.5354 0.942369C21.341 1.68783 22.9485 2.84293 24.2309 4.3164L24.9852 3.65989L25.7395 3.00338C24.2535 1.296 22.3908 -0.0424741 20.2987 -0.906266L19.917 0.0180514ZM24.9852 3.65989L24.2309 4.3164C25.5133 5.78985 26.4354 7.54133 26.9246 9.43249L27.8927 9.18206L28.8609 8.93164C28.2941 6.74031 27.2255 4.71077 25.7395 3.00338L24.9852 3.65989ZM27.8927 9.18206L26.9214 9.41977C26.8737 9.22466 26.9049 9.01757 27.0099 8.84433L27.8651 9.36263L28.7203 9.88093C28.8909 9.5994 28.9419 9.26245 28.8641 8.94436L27.8927 9.18206ZM27.8651 9.36263L27.0099 8.84433C27.1144 8.67194 27.283 8.54794 27.4791 8.49975L27.7178 9.47083L27.9565 10.4419C28.2755 10.3635 28.5502 10.1616 28.7203 9.88093L27.8651 9.36263ZM27.7178 9.47083L27.5036 8.49404C27.5388 8.48632 27.5737 8.48175 27.608 8.47999L27.6591 9.47868L27.7103 10.4774C27.784 10.4736 27.8582 10.4638 27.932 10.4476L27.7178 9.47083ZM27.6591 9.47868L27.5388 10.4714L27.5459 10.4723L27.6662 9.47954L27.7865 8.4868L27.7795 8.48595L27.6591 9.47868Z" fill="white" mask="url(#path-44-inside-3_11286_472)"/>
<mask id="path-46-inside-4_11286_472" fill="white">
<path d="M0.235458 12.787C0.204334 12.7872 0.173446 12.7813 0.144667 12.7694C0.115888 12.7576 0.0897959 12.7401 0.0678688 12.718C0.0459417 12.6959 0.0286673 12.6696 0.0170259 12.6408C0.00538444 12.6119 -0.000424548 12.581 4.26452e-05 12.5499C-0.00709127 9.71541 0.880992 6.95111 2.5376 4.65115C3.87722 2.79267 5.66234 1.30061 7.72902 0.311986C7.75708 0.298593 7.78759 0.290864 7.81864 0.289342C7.84969 0.28782 7.88073 0.292536 7.90996 0.303121C7.93919 0.313706 7.96602 0.329976 7.9889 0.351026C8.01177 0.372077 8.03018 0.397437 8.04316 0.425688C8.05656 0.453445 8.0643 0.483617 8.06591 0.514396C8.06752 0.545176 8.06299 0.57597 8.05256 0.604974C8.04213 0.633978 8.02608 0.660615 8.00524 0.683321C7.9844 0.706028 7.95922 0.724339 7.93122 0.737208C5.93664 1.69105 4.21462 3.13225 2.92437 4.92764C1.32498 7.14677 0.467457 9.81444 0.474292 12.5499C0.474523 12.581 0.468661 12.6119 0.456881 12.6407C0.445101 12.6695 0.427691 12.6957 0.405718 12.7178C0.383745 12.7398 0.357586 12.7573 0.328813 12.7691C0.300039 12.781 0.26926 12.7871 0.238129 12.787H0.235458Z"/>
</mask>
<path d="M0.235458 12.787C0.204334 12.7872 0.173446 12.7813 0.144667 12.7694C0.115888 12.7576 0.0897959 12.7401 0.0678688 12.718C0.0459417 12.6959 0.0286673 12.6696 0.0170259 12.6408C0.00538444 12.6119 -0.000424548 12.581 4.26452e-05 12.5499C-0.00709127 9.71541 0.880992 6.95111 2.5376 4.65115C3.87722 2.79267 5.66234 1.30061 7.72902 0.311986C7.75708 0.298593 7.78759 0.290864 7.81864 0.289342C7.84969 0.28782 7.88073 0.292536 7.90996 0.303121C7.93919 0.313706 7.96602 0.329976 7.9889 0.351026C8.01177 0.372077 8.03018 0.397437 8.04316 0.425688C8.05656 0.453445 8.0643 0.483617 8.06591 0.514396C8.06752 0.545176 8.06299 0.57597 8.05256 0.604974C8.04213 0.633978 8.02608 0.660615 8.00524 0.683321C7.9844 0.706028 7.95922 0.724339 7.93122 0.737208C5.93664 1.69105 4.21462 3.13225 2.92437 4.92764C1.32498 7.14677 0.467457 9.81444 0.474292 12.5499C0.474523 12.581 0.468661 12.6119 0.456881 12.6407C0.445101 12.6695 0.427691 12.6957 0.405718 12.7178C0.383745 12.7398 0.357586 12.7573 0.328813 12.7691C0.300039 12.781 0.26926 12.7871 0.238129 12.787H0.235458Z" fill="white"/>
<path d="M0.235458 12.787L0.235458 11.787L0.227855 11.787L0.235458 12.787ZM4.26452e-05 12.5499L0.99993 12.5649L1.00006 12.5561L1.00004 12.5473L4.26452e-05 12.5499ZM2.5376 4.65115L1.72638 4.06641L1.72617 4.0667L2.5376 4.65115ZM7.72902 0.311986L7.29821 -0.590455L7.29749 -0.590112L7.72902 0.311986ZM8.04316 0.425688L7.13442 0.843055L7.13843 0.851779L7.1426 0.860425L8.04316 0.425688ZM7.93122 0.737208L7.51368 -0.171451L7.50671 -0.168249L7.49979 -0.164941L7.93122 0.737208ZM2.92437 4.92764L3.73562 5.51233L3.73642 5.51122L2.92437 4.92764ZM0.474292 12.5499L-0.525717 12.5524L-0.525681 12.5573L0.474292 12.5499ZM0.238129 12.787L0.241874 11.787H0.238129V12.787ZM0.235458 12.787L0.227855 11.787C0.329125 11.7862 0.430382 11.8056 0.525549 11.8448L0.144667 12.7694L-0.236214 13.694C-0.0834898 13.7569 0.0795431 13.7882 0.243061 13.787L0.235458 12.787ZM0.144667 12.7694L0.525549 11.8448C0.620253 11.8838 0.705892 11.9413 0.77759 12.0135L0.0678688 12.718L-0.641852 13.4225C-0.5263 13.5389 -0.388477 13.6313 -0.236214 13.694L0.144667 12.7694ZM0.0678688 12.718L0.77759 12.0135C0.849921 12.0864 0.906473 12.1726 0.944446 12.2667L0.0170259 12.6408L-0.910394 13.0148C-0.849139 13.1667 -0.758038 13.3054 -0.641852 13.4225L0.0678688 12.718ZM0.0170259 12.6408L0.944446 12.2667C0.98222 12.3604 1.00148 12.4617 0.99993 12.5649L4.26452e-05 12.5499L-0.999845 12.5348C-1.00233 12.7003 -0.971451 12.8634 -0.910394 13.0148L0.0170259 12.6408ZM4.26452e-05 12.5499L1.00004 12.5473C0.993436 9.92354 1.81552 7.36465 3.34902 5.2356L2.5376 4.65115L1.72617 4.0667C-0.0535375 6.53757 -1.00762 9.50729 -0.999954 12.5524L4.26452e-05 12.5499ZM2.5376 4.65115L3.34882 5.23589C4.59046 3.51334 6.24503 2.1304 8.16055 1.21408L7.72902 0.311986L7.29749 -0.590112C5.07966 0.470819 3.16398 2.07201 1.72638 4.06641L2.5376 4.65115ZM7.72902 0.311986L8.15984 1.21443C8.06883 1.25787 7.96959 1.28314 7.8676 1.28814L7.81864 0.289342L7.76967 -0.709459C7.60558 -0.701414 7.44533 -0.660688 7.29821 -0.590455L7.72902 0.311986ZM7.81864 0.289342L7.8676 1.28814C7.76518 1.29316 7.6639 1.27756 7.56948 1.24337L7.90996 0.303121L8.25044 -0.637131C8.09757 -0.69249 7.9342 -0.717524 7.76967 -0.709459L7.81864 0.289342ZM7.90996 0.303121L7.56948 1.24337C7.47436 1.20893 7.38669 1.15583 7.31178 1.0869L7.9889 0.351026L8.66602 -0.384848C8.54535 -0.495879 8.40403 -0.581515 8.25044 -0.637131L7.90996 0.303121ZM7.9889 0.351026L7.31178 1.0869C7.23666 1.01778 7.17653 0.934731 7.13442 0.843055L8.04316 0.425688L8.9519 0.00832225C8.88384 -0.139857 8.78689 -0.273626 8.66602 -0.384848L7.9889 0.351026ZM8.04316 0.425688L7.1426 0.860425C7.09825 0.768552 7.07262 0.668709 7.06728 0.566667L8.06591 0.514396L9.06454 0.462126C9.05598 0.298525 9.01487 0.138338 8.94372 -0.00904859L8.04316 0.425688ZM8.06591 0.514396L7.06728 0.566667C7.06195 0.464869 7.07694 0.36286 7.11154 0.266629L8.05256 0.604974L8.99358 0.943319C9.04904 0.78908 9.07309 0.625483 9.06454 0.462126L8.06591 0.514396ZM8.05256 0.604974L7.11154 0.266629C7.14569 0.171627 7.19872 0.0831652 7.26853 0.00710839L8.00524 0.683321L8.74195 1.35953C8.85344 1.23806 8.93857 1.09633 8.99358 0.943319L8.05256 0.604974ZM8.00524 0.683321L7.26853 0.00710839C7.33784 -0.0683974 7.42126 -0.128984 7.51368 -0.171451L7.93122 0.737208L8.34876 1.64587C8.49719 1.57766 8.63096 1.48045 8.74195 1.35953L8.00524 0.683321ZM7.93122 0.737208L7.49979 -0.164941C5.35359 0.861412 3.50066 2.41218 2.11231 4.34405L2.92437 4.92764L3.73642 5.51122C4.92858 3.85233 6.51969 2.52069 8.36264 1.63936L7.93122 0.737208ZM2.92437 4.92764L2.11311 4.34294C0.390516 6.73302 -0.533066 9.6062 -0.525705 12.5524L0.474292 12.5499L1.47429 12.5474C1.46798 10.0227 2.25944 7.56051 3.73562 5.51233L2.92437 4.92764ZM0.474292 12.5499L-0.525681 12.5573C-0.526419 12.4581 -0.50776 12.3577 -0.468766 12.2623L0.456881 12.6407L1.38253 13.0191C1.44508 12.8661 1.47547 12.7039 1.47426 12.5424L0.474292 12.5499ZM0.456881 12.6407L-0.468766 12.2623C-0.430285 12.1682 -0.373672 12.0832 -0.302695 12.012L0.405718 12.7178L1.11413 13.4236C1.22905 13.3082 1.32049 13.1709 1.38253 13.0191L0.456881 12.6407ZM0.405718 12.7178L-0.302695 12.012C-0.230551 11.9396 -0.145458 11.8831 -0.0529945 11.8449L0.328813 12.7691L0.71062 13.6934C0.860631 13.6314 0.998041 13.5401 1.11413 13.4236L0.405718 12.7178ZM0.328813 12.7691L-0.0529945 11.8449C0.0400629 11.8065 0.140297 11.7866 0.241874 11.787L0.238129 12.787L0.234383 13.787C0.398223 13.7876 0.560016 13.7556 0.71062 13.6934L0.328813 12.7691ZM0.238129 12.787V11.787H0.235458V12.787V13.787H0.238129V12.787Z" fill="white" mask="url(#path-46-inside-4_11286_472)"/>
<path d="M40.3939 13.6068C39.8336 13.4152 39.2926 13.1729 38.7775 12.8831C38.7185 12.8447 38.6687 12.7938 38.632 12.7341C38.5953 12.6743 38.5725 12.6073 38.5653 12.5379C38.5653 12.0841 38.8989 11.8605 39.567 11.8605C40.6227 11.9071 41.645 12.2397 42.5218 12.8218V10.8718C41.6348 10.4318 40.6533 10.2094 39.6607 10.2237C38.7151 10.1787 37.781 10.444 37.0044 10.9784C36.739 11.1655 36.515 11.4041 36.3462 11.6795C36.1775 11.9549 36.0674 12.2614 36.0227 12.5803C35.9779 12.8991 35.9995 13.2235 36.0862 13.5339C36.1728 13.8442 36.3226 14.1338 36.5264 14.3851C37.0622 14.9432 37.7323 15.3583 38.4745 15.5917C39.0599 15.7843 39.6212 16.0423 40.1473 16.3606C40.2206 16.4171 40.2807 16.4884 40.3237 16.5698C40.3668 16.6512 40.3917 16.7407 40.3968 16.8323C40.3968 17.2616 39.9456 17.4805 39.0471 17.4805C38.0534 17.4251 37.0812 17.1722 36.189 16.737V18.6691C37.184 19.1095 38.2655 19.3273 39.3558 19.3069C40.3074 19.3682 41.2518 19.107 42.0324 18.5663C42.3451 18.3134 42.5928 17.9912 42.7556 17.626C42.9184 17.2607 42.9915 16.8628 42.9691 16.4644C42.9674 15.887 42.7618 15.3282 42.3879 14.8842C41.8455 14.3001 41.1622 13.861 40.4016 13.6077" fill="white"/>
<path d="M68.5525 16.8646V12.8796C68.5525 11.1091 67.3028 10.2242 64.8035 10.2248C63.4499 10.2153 62.1214 10.5843 60.9714 11.289V13.5277C61.3865 13.0789 61.8896 12.7178 62.4502 12.4664C63.0108 12.2151 63.6173 12.0786 64.2329 12.0654C65.3163 12.0654 65.8286 12.5529 65.77 13.5277C63.2586 14.2592 61.7542 14.8592 61.2572 15.3277C61.009 15.5659 60.8146 15.853 60.6865 16.1703C60.5583 16.4876 60.4994 16.828 60.5135 17.1693C60.5158 17.4551 60.5812 17.7369 60.7054 17.995C60.8295 18.2531 61.0094 18.4814 61.2323 18.6637C61.7113 19.091 62.3381 19.3206 62.9835 19.3052C64.0342 19.2818 65.052 18.94 65.899 18.326C66.0615 18.9807 66.5806 19.3052 67.4552 19.3052C68.3791 19.2723 69.2775 18.9983 70.0591 18.5109V16.9844C69.7601 17.2393 69.3967 17.4095 69.0076 17.4769C68.7027 17.4769 68.5488 17.2712 68.5488 16.8636L68.5525 16.8646ZM65.7662 17.0193C65.3557 17.4217 64.8071 17.6574 64.2291 17.6797C64.1092 17.6815 63.9902 17.658 63.8803 17.6109C63.7703 17.5637 63.6719 17.4939 63.5915 17.4061C63.42 17.2313 63.3257 16.9966 63.3295 16.7533C63.3277 16.5603 63.3743 16.3698 63.465 16.1988C63.5557 16.0278 63.6878 15.8816 63.8496 15.7731C64.4439 15.3991 65.0871 15.1068 65.7614 14.9042L65.7662 17.0193Z" fill="white"/>
<path d="M74.3501 7.32227H74.0022L70.3029 11.4082V11.9488H71.5675V15.6923C71.5356 16.139 71.599 16.5874 71.7536 17.0084C71.9082 17.4295 72.1506 17.8139 72.4651 18.1367C73.1683 18.7254 74.0749 19.0229 74.9953 18.9669C75.8835 18.9557 76.7607 18.771 77.5763 18.4235V16.4338C77.0041 16.7483 76.364 16.9233 75.7094 16.9442C75.5258 16.9542 75.3421 16.9257 75.1704 16.8607C74.9988 16.7957 74.843 16.6955 74.7134 16.5668C74.5874 16.4287 74.4904 16.2672 74.4281 16.0919C74.3657 15.9165 74.3393 15.7307 74.3501 15.5451V11.9488H77.5763V10.0705H74.3501V7.32227Z" fill="white"/>
<path d="M86.5778 11.578C86.1477 11.1319 85.6268 10.7806 85.0493 10.5473C84.4719 10.3139 83.851 10.2038 83.2274 10.2242C82.6105 10.2037 81.9958 10.3071 81.4207 10.5281C80.8456 10.7491 80.322 11.0833 79.8817 11.5102C79.4472 11.9407 79.1068 12.4546 78.8815 13.0201C78.6563 13.5856 78.551 14.1907 78.5722 14.798C78.5466 15.4112 78.6583 16.0224 78.8991 16.5882C79.14 17.154 79.5041 17.6604 79.9658 18.0716C81.0059 18.933 82.3377 19.3742 83.6938 19.3066C85.0987 19.3553 86.4819 18.9542 87.6368 18.1632V16.4301C86.7082 17.1829 85.5585 17.6202 84.3582 17.6773C83.616 17.7153 82.8846 17.489 82.2973 17.0395C82.0351 16.809 81.8239 16.5276 81.6772 16.2128C81.5305 15.898 81.4513 15.5567 81.4445 15.2102H87.7974C87.8578 14.5542 87.7805 13.893 87.5701 13.2678C87.3597 12.6427 87.0209 12.0671 86.5749 11.5771L86.5778 11.578ZM81.501 13.7659C81.6377 12.4979 82.2781 11.8592 83.4194 11.8592C84.5608 11.8592 85.1917 12.4979 85.3399 13.7659H81.501Z" fill="white"/>
<path d="M106.092 10.8978L104.095 15.396L102.224 10.8978H100.886V10.8911H97.4607V10.8978H93.3637C92.2919 10.8228 91.2335 11.1686 90.4187 11.86C90.1023 12.1394 89.8487 12.4811 89.6743 12.8631C89.5 13.2452 89.4086 13.659 89.4063 14.078C89.3949 14.736 89.6474 15.3718 90.1089 15.8469C90.5821 16.3412 91.2081 16.6667 91.8888 16.7724C90.8156 17.0133 90.2787 17.4535 90.278 18.0932C90.278 18.6429 90.6343 19.0225 91.3468 19.2319C89.7734 19.6498 88.9838 20.3923 88.9838 21.4499C88.9898 21.8369 89.1054 22.2145 89.3174 22.54C89.5294 22.8656 89.8293 23.1262 90.1834 23.2924C91.2782 23.818 92.4915 24.0574 93.7069 23.9877C94.9166 24.058 96.1225 23.7968 97.1911 23.2329C97.5725 23.01 97.8857 22.6896 98.0977 22.3055C98.3097 21.9214 98.4126 21.4879 98.3956 21.0508C98.3834 20.4228 98.1298 19.8229 97.6862 19.3725C96.9972 18.7611 96.1007 18.4275 95.1742 18.4376C94.4763 18.4191 93.7829 18.3197 93.1085 18.1413C93.0327 18.1098 92.9677 18.0575 92.9211 17.9906C92.8745 17.9237 92.8483 17.845 92.8456 17.7639C92.8448 17.6895 92.8627 17.6161 92.8978 17.5502C92.9328 17.4844 92.9838 17.4282 93.0463 17.3866C93.5982 17.2055 94.1734 17.1025 94.7546 17.0809C95.6165 17.0399 96.4295 16.6738 97.0258 16.0582C97.513 15.5513 97.7882 14.8814 97.7963 14.1827C97.7837 13.6677 97.6315 13.1654 97.3555 12.728H100.128L102.716 18.1932L100.121 23.8141H103.084L109.011 10.8892L106.092 10.8978ZM93.6658 20.2952C95.1098 20.2952 95.8319 20.6159 95.8319 21.2574C95.8195 21.4244 95.7612 21.585 95.6634 21.7218C95.5655 21.8585 95.4317 21.9664 95.2764 22.0338C94.8339 22.2678 94.3356 22.3794 93.8341 22.3565C92.3199 22.3565 91.559 22.0169 91.559 21.3329C91.5672 21.1668 91.6247 21.0067 91.7243 20.8725C91.8238 20.7384 91.9611 20.636 92.1191 20.5782C92.6063 20.3693 93.1352 20.2726 93.6658 20.2952V20.2952ZM94.7278 15.2007C94.5866 15.3561 94.4136 15.4801 94.2201 15.5644C94.0266 15.6486 93.8171 15.6912 93.6056 15.6894C93.1824 15.6867 92.777 15.5206 92.4763 15.2267C92.1756 14.9328 92.0036 14.5343 91.9968 14.1167C91.9929 13.907 92.0317 13.6986 92.1112 13.5041C92.1907 13.3096 92.3092 13.1329 92.4595 12.9846C92.6083 12.834 92.7869 12.7152 92.9842 12.6359C93.1816 12.5565 93.3935 12.5181 93.6065 12.5232C93.8157 12.5163 94.024 12.5519 94.2187 12.6277C94.4133 12.7035 94.5902 12.8179 94.7383 12.9638C94.8839 13.0992 94.9996 13.2629 95.0779 13.4446C95.1563 13.6263 95.1956 13.822 95.1933 14.0195C95.2008 14.4569 95.0339 14.8797 94.7287 15.1969" fill="white"/>
<path d="M49.0926 16.9432C48.909 16.9535 48.7251 16.9252 48.5534 16.8602C48.3817 16.7951 48.226 16.6948 48.0966 16.5659C47.9714 16.4277 47.875 16.2665 47.8132 16.0915C47.7513 15.9164 47.7251 15.7311 47.7361 15.546V11.9469L47.9035 11.9346H50.8056V10.061H47.7361V7.32031H47.3863L43.687 11.4063V11.9469H44.9526V15.6903C44.9201 16.1371 44.9832 16.5857 45.1379 17.0068C45.2925 17.428 45.5351 17.8123 45.8501 18.1347C46.554 18.7243 47.4619 19.0219 48.3833 18.965C49.2694 18.9532 50.1444 18.7692 50.9584 18.4235V16.4319C50.387 16.7465 49.7476 16.9215 49.0936 16.9423" fill="white"/>
<path d="M59.9314 11.0148L59.1619 13.4432C58.6762 13.0865 58.1045 12.8614 57.5034 12.7904C57.1481 12.8177 56.8079 12.9437 56.5222 13.1539C56.2365 13.3641 56.0169 13.6499 55.8889 13.9781C55.6075 14.4036 55.3851 14.8643 55.2274 15.348V19.1348H52.442V10.395H55.2274V12.4168L55.26 12.8979C56.062 11.1054 57.0055 10.2129 58.078 10.2129C58.7655 10.2826 59.4136 10.5631 59.9314 11.0148V11.0148Z" fill="white"/>
<path d="M52.4487 10.1729H52.4381V12.0446H52.4487V10.1729Z" fill="white"/>
<path d="M132.083 10.5918H139.448L134.88 17.5288H139.448V19.1015H131.897L136.429 12.1626H132.085L132.083 10.5918Z" fill="white"/>
<path d="M148.331 14.9943H142.267C142.276 15.7235 142.574 16.4204 143.096 16.9359C143.361 17.1789 143.672 17.3676 144.011 17.4912C144.35 17.6148 144.71 17.6707 145.071 17.6558C146.195 17.6544 147.287 17.2899 148.181 16.618V18.2633C147.703 18.5879 147.176 18.8383 146.621 19.0058C146.029 19.1626 145.417 19.2372 144.804 19.2275C143.994 19.2632 143.191 19.061 142.498 18.6464C141.902 18.2469 141.417 17.7073 141.086 17.0765C140.721 16.3706 140.539 15.5865 140.556 14.7944C140.506 13.639 140.906 12.5086 141.674 11.6348C142.037 11.2359 142.484 10.9204 142.984 10.7104C143.485 10.5005 144.025 10.4013 144.568 10.4197C145.086 10.3992 145.601 10.4953 146.076 10.7006C146.55 10.9059 146.971 11.2151 147.306 11.6047C148.025 12.5051 148.387 13.6327 148.326 14.7774L148.331 14.9943ZM142.309 13.984H146.646C146.641 13.4109 146.425 12.8592 146.038 12.432C145.846 12.2464 145.616 12.102 145.364 12.0075C145.113 11.9131 144.844 11.8707 144.575 11.883C144.019 11.8623 143.478 12.0597 143.069 12.432C142.65 12.853 142.381 13.3981 142.305 13.984" fill="white"/>
<path d="M152.008 10.584V12.534L152.103 12.385C152.929 11.0755 153.752 10.417 154.579 10.417C155.35 10.474 156.07 10.8183 156.593 11.3802L155.693 12.8577C155.271 12.3838 154.681 12.0868 154.045 12.0274C153.76 12.034 153.482 12.1078 153.232 12.2427C152.983 12.3777 152.77 12.5698 152.611 12.8029C152.207 13.3332 151.995 13.9827 152.011 14.6464V19.0936H150.29V10.584H152.008Z" fill="white"/>
<path d="M161.425 10.5833C162.028 10.5654 162.628 10.6673 163.19 10.883C163.752 11.0987 164.264 11.4239 164.696 11.839C165.122 12.2453 165.458 12.735 165.683 13.2767C165.907 13.8184 166.015 14.4003 165.998 14.9853C166.013 15.559 165.903 16.1291 165.675 16.6568C165.446 17.1846 165.106 17.6577 164.675 18.0438C163.772 18.865 162.578 19.3022 161.351 19.2609C160.754 19.2774 160.16 19.1769 159.603 18.9652C159.046 18.7536 158.537 18.435 158.106 18.0278C157.691 17.6213 157.363 17.1378 157.139 16.6052C156.916 16.0726 156.801 15.5016 156.803 14.9251C156.804 14.3486 156.921 13.778 157.148 13.2465C157.374 12.715 157.705 12.2331 158.121 11.8286C158.56 11.4153 159.079 11.0924 159.646 10.8786C160.213 10.6648 160.818 10.5644 161.424 10.5833H161.425ZM161.329 12.1013C160.956 12.0886 160.584 12.1529 160.237 12.29C159.89 12.4271 159.576 12.634 159.315 12.8975C159.052 13.1655 158.848 13.4828 158.712 13.8307C158.577 14.1785 158.514 14.5497 158.527 14.9221C158.514 15.2914 158.579 15.6594 158.717 16.0028C158.856 16.3462 159.065 16.6576 159.331 16.9174C159.607 17.1757 159.933 17.3768 160.289 17.509C160.645 17.6412 161.024 17.7018 161.404 17.6872C161.783 17.7018 162.16 17.6402 162.514 17.5062C162.867 17.3723 163.189 17.1687 163.461 16.908C163.981 16.3649 164.269 15.6438 164.263 14.8961C164.256 14.1483 163.957 13.432 163.427 12.8975C163.148 12.6327 162.819 12.4258 162.457 12.289C162.096 12.1523 161.711 12.0884 161.324 12.1013" fill="white"/>
<path d="M125.703 18.0248C125.606 17.9412 125.523 17.8428 125.458 17.7333C125.384 17.6012 125.329 17.4592 125.296 17.3116C125.24 16.982 125.218 16.6476 125.23 16.3135V13.9191H124.318V13.8134L126.267 11.8426V12.9567H127.658C127.305 11.1855 126.306 9.60359 124.851 8.50982C123.395 7.41604 121.585 6.8862 119.76 7.02046C117.936 7.15473 116.225 7.94379 114.951 9.23851C113.676 10.5332 112.926 12.2439 112.842 14.0473C112.934 13.8891 113.045 13.7419 113.171 13.6087C113.406 13.3576 113.693 13.1592 114.013 13.0269C114.332 12.8946 114.677 12.8314 115.023 12.8416C115.417 12.8486 115.805 12.926 116.171 13.07V10.1557H117.211V18.3635H114.999C114.433 18.3806 113.879 18.2035 113.431 17.8625C113.948 19.1879 114.847 20.3356 116.015 21.1648C117.183 21.994 118.572 22.4689 120.009 22.5312C121.447 22.5934 122.872 22.2404 124.11 21.5154C125.347 20.7904 126.344 19.7249 126.977 18.4494C126.948 18.4533 126.92 18.4555 126.891 18.456C126.454 18.4705 126.029 18.3169 125.705 18.0276L125.703 18.0248ZM123.101 17.6852C122.833 17.9406 122.516 18.1403 122.169 18.2726C121.821 18.4048 121.45 18.4668 121.078 18.455C120.712 18.4612 120.349 18.3944 120.01 18.2585C119.671 18.1226 119.363 17.9204 119.105 17.6642C118.847 17.4079 118.644 17.1029 118.509 16.7673C118.373 16.4318 118.308 16.0727 118.316 15.7116C118.307 15.3455 118.374 14.9815 118.512 14.6416C118.65 14.3017 118.857 13.9931 119.119 13.7346C119.382 13.4761 119.695 13.273 120.04 13.1378C120.385 13.0027 120.754 12.9382 121.125 12.9483C121.494 12.9376 121.861 13.0025 122.203 13.1391C122.546 13.2757 122.855 13.4809 123.113 13.7417C123.375 14.0053 123.58 14.3184 123.716 14.6623C123.852 15.0062 123.916 15.3737 123.905 15.7427C123.915 16.1036 123.849 16.4628 123.711 16.7971C123.573 17.1314 123.365 17.4336 123.102 17.6843" fill="white"/>
<path d="M121.068 14.0223C120.841 14.0152 120.615 14.0545 120.405 14.1378C120.194 14.2211 120.004 14.3466 119.845 14.5063C119.685 14.6694 119.561 14.8627 119.478 15.0746C119.396 15.2865 119.358 15.5126 119.367 15.7393C119.359 15.9631 119.398 16.1862 119.482 16.3942C119.566 16.6023 119.693 16.7909 119.855 16.9479C120.022 17.1055 120.22 17.2285 120.437 17.3095C120.653 17.3905 120.884 17.4279 121.115 17.4196C121.345 17.4285 121.575 17.3913 121.789 17.3102C122.004 17.2291 122.2 17.1058 122.366 16.9479C122.682 16.618 122.857 16.1799 122.853 15.7257C122.849 15.2715 122.667 14.8364 122.345 14.5119C122.175 14.3518 121.975 14.2267 121.756 14.1436C121.537 14.0605 121.303 14.0212 121.069 14.028" fill="white"/>
<path d="M116.169 17.4012V14.1247C115.865 13.9685 115.528 13.8851 115.185 13.8813C114.955 13.8716 114.726 13.9114 114.513 13.9981C114.301 14.0848 114.11 14.2162 113.954 14.3832C113.632 14.7592 113.468 15.2426 113.495 15.7342C113.467 16.178 113.609 16.6159 113.894 16.9606C114.029 17.1185 114.204 17.2391 114.401 17.3106C114.717 17.3846 115.042 17.4145 115.366 17.3993L116.169 17.4012Z" fill="white"/>
<path d="M126.27 16.5693C126.27 17.1589 126.518 17.4551 127.017 17.4551C127.149 17.4521 127.28 17.4366 127.409 17.4089C127.817 16.3335 127.96 15.178 127.828 14.0371H126.27V16.5693Z" fill="white"/>
</svg>
